HIERARCHY
ROOT root
{
	OFFSET	0	13.1	24.9
	CHANNELS 6  Xposition Yposition Zposition Xrotation Yrotation Zrotation
	JOINT spine_1
	{
		OFFSET	0	9.99999	0
		CHANNELS 3  Xrotation Yrotation Zrotation
		JOINT spine_2
		{
			OFFSET	0	112	-10
			CHANNELS 3  Xrotation Yrotation Zrotation
			JOINT spine_3
			{
				OFFSET	0	206.5	19.3
				CHANNELS 3  Xrotation Yrotation Zrotation
				JOINT spine_4
				{
					OFFSET	0	110.4	14.6
					CHANNELS 3  Xrotation Yrotation Zrotation
					JOINT neck_1
					{
						OFFSET	0	71.8	-50.3
						CHANNELS 3  Xrotation Yrotation Zrotation
						JOINT neck_2
						{
							OFFSET	0	86.2	-25.8
							CHANNELS 3  Xrotation Yrotation Zrotation
							JOINT head_ee
							{
								OFFSET	0	179.8	-8.7
								CHANNELS 3  Xrotation Yrotation Zrotation
								End Site
								{
									OFFSET	1	0	0
								}
							}
						}
					}
					JOINT left_clavicle
					{
						OFFSET	-43.2	22.4	-70.8
						CHANNELS 3  Xrotation Yrotation Zrotation
						JOINT left_shoulder
						{
							OFFSET	-93.9	-5.79999	48.7
							CHANNELS 3  Xrotation Yrotation Zrotation
							JOINT left_elbow
							{
								OFFSET	-291.4	-30.8	15.2
								CHANNELS 3  Xrotation Yrotation Zrotation
								JOINT left_lowarm_twist
								{
									OFFSET	-110.7	-3.89999	13.6
									CHANNELS 3  Xrotation Yrotation Zrotation
									JOINT left_hand
									{
										OFFSET	-110.7	-3.89999	13.6
										CHANNELS 3  Xrotation Yrotation Zrotation
										JOINT left_ee
										{
											OFFSET	-80.8	-5.10001	12.1
											CHANNELS 3  Xrotation Yrotation Zrotation
											End Site
											{
												OFFSET	1	0	0
											}
										}
									}
								}
							}
						}
					}
					JOINT right_clavicle
					{
						OFFSET	43.2	22.4	-70.8
						CHANNELS 3  Xrotation Yrotation Zrotation
						JOINT right_shoulder
						{
							OFFSET	93.9	-5.79999	48.7
							CHANNELS 3  Xrotation Yrotation Zrotation
							JOINT right_elbow
							{
								OFFSET	291.4	-30.8	15.2
								CHANNELS 3  Xrotation Yrotation Zrotation
								JOINT right_lowarm_twist
								{
									OFFSET	110.7	-3.89999	13.6
									CHANNELS 3  Xrotation Yrotation Zrotation
									JOINT right_hand
									{
										OFFSET	110.7	-3.89999	13.6
										CHANNELS 3  Xrotation Yrotation Zrotation
										JOINT right_ee
										{
											OFFSET	80.8	-5.10001	12.1
											CHANNELS 3  Xrotation Yrotation Zrotation
											End Site
											{
												OFFSET	1	0	0
											}
										}
									}
								}
							}
						}
					}
				}
			}
		}
	}
	JOINT left_hip
	{
		OFFSET	-82.8	-127.5	0.300001
		CHANNELS 3  Xrotation Yrotation Zrotation
		JOINT left_knee
		{
			OFFSET	-28.2	-396.7	2.2
			CHANNELS 3  Xrotation Yrotation Zrotation
			JOINT left_ankle
			{
				OFFSET	-11.7	-411.3	35.4
				CHANNELS 3  Xrotation Yrotation Zrotation
				JOINT left_toes
				{
					OFFSET	0	-60	-88.6
					CHANNELS 3  Xrotation Yrotation Zrotation
					JOINT left_foot_ee
					{
						OFFSET	-22.5	-16.5	-42.2
						CHANNELS 3  Xrotation Yrotation Zrotation
						End Site
						{
							OFFSET	1	0	0
						}
					}
				}
			}
		}
	}
	JOINT right_hip
	{
		OFFSET	82.8	-127.5	0.300001
		CHANNELS 3  Xrotation Yrotation Zrotation
		JOINT right_knee
		{
			OFFSET	28.2	-396.7	2.2
			CHANNELS 3  Xrotation Yrotation Zrotation
			JOINT right_ankle
			{
				OFFSET	11.7	-411.3	35.4
				CHANNELS 3  Xrotation Yrotation Zrotation
				JOINT right_toes
				{
					OFFSET	0	-60	-88.6
					CHANNELS 3  Xrotation Yrotation Zrotation
					JOINT right_foot_ee
					{
						OFFSET	22.5	-16.5	-42.2
						CHANNELS 3  Xrotation Yrotation Zrotation
						End Site
						{
							OFFSET	1	0	0
						}
					}
				}
			}
		}
	}
}
MOTION
Frames: 13
Frame Time: 0.02
2874.62526443 709.912 -1699.44412243 0.965761360745 59.9827681639 11.3492111444 1.51788 -0.562588 -4.18392 1.52756 -0.295456 -4.21118 1.55023 0.483549 -4.19377 1.52574 -0.184239 -4.21749 -19.2615 5.76074 6.503 -19.2166 7.71658 8.36596 -0.0 0.0 -0.0 10.9217 -0.166556 21.5837 -14.0072 -25.9313 48.7173 1.11574 -28.9288 0.28782 -73.1163 -6.94414 5.31933 -3.35229 26.8874 -7.94748 -0.0 0.0 -0.0 -4.02545 -10.7533 5.64048 -5.17534 20.5676 -73.4002 0.711835 19.4238 -0.12183 57.9393 1.59394 6.91461 -1.07201 -21.309 -2.24952 0.0 0.0 0.0 13.3345 33.0166 -19.2907 -1.63083 0.0637052 0.242158 26.8236 -31.6135 -4.48953 -10.0537 0.0 0.0 -0.0 0.0 -0.0 6.98696 2.72243 -10.8691 -31.6221 0.0214751 -4.79174 -24.8646 -27.3343 -3.94839 -32.9668 0.0 0.0 0.0 0.0 0.0 
2870.69911214 713.122 -1689.64153759 0.403000415606 59.7638590976 11.9702802945 1.64999 -0.395947 -4.35 1.6605 -0.118612 -4.36634 1.66995 0.677438 -4.3152 1.64397 -0.0118933 -4.36793 -19.9063 5.84689 6.80182 -19.8561 7.81093 8.7349 -0.0 0.0 -0.0 10.7438 -1.30892 21.2741 -13.0677 -26.1471 48.7831 1.22235 -31.1943 0.341231 -73.3839 -6.97835 5.31978 -3.35837 25.9847 -8.50824 -0.0 0.0 -0.0 -3.63558 -11.036 4.90625 -6.37258 21.092 -72.1299 0.60327 16.6385 -0.0882153 57.1775 1.52919 6.84153 -1.23444 -20.5918 -0.98027 0.0 0.0 0.0 12.3645 31.7996 -18.902 -2.63057 0.0993369 0.391449 25.9538 -31.1888 -4.34483 -9.54823 0.0 0.0 -0.0 0.0 -0.0 9.0997 2.6937 -11.1518 -26.4417 -0.163827 -4.01857 -23.5946 -24.9075 -3.69692 -33.4619 0.0 0.0 0.0 0.0 0.0 
2861.74834833 714.147 -1670.40255421 -1.18211425912 61.7626793485 13.7300217349 1.78024 -0.265947 -4.36853 1.79086 0.0123023 -4.37659 1.78981 0.799384 -4.30312 1.76399 0.110432 -4.37522 -20.0372 6.40051 7.81986 -19.9576 8.38097 9.91701 -0.0 0.0 -0.0 10.6723 -0.556758 21.0831 -12.1458 -24.7775 48.6595 1.46495 -35.9659 0.475531 -74.6223 -7.13662 5.31976 -3.32052 26.9797 -7.71684 -0.0 0.0 -0.0 -3.19593 -10.5545 4.24218 -7.16763 20.4916 -71.9889 0.419405 11.737 -0.0431086 58.0425 1.60279 6.92444 -1.30485 -16.2896 1.36885 0.0 0.0 0.0 11.6113 31.5857 -18.3774 -0.370214 0.0150673 0.0548152 24.9644 -29.2746 -4.10342 -11.9585 0.0 0.0 -0.0 0.0 -0.0 9.43682 1.10281 -12.8165 -18.3128 -0.311903 -2.781 -22.02 -23.6345 -3.42809 -33.8265 0.0 0.0 0.0 0.0 0.0 
2852.60380944 716.035 -1652.70392753 -2.69079243708 66.1220290084 15.273060191 1.81775 -0.71956 -4.34487 1.82814 -0.441899 -4.38175 1.86226 0.346662 -4.3903 1.83554 -0.350367 -4.39 -18.2563 7.68012 11.1846 -17.9874 8.76812 13.3465 -0.0 0.0 -0.0 10.6157 -0.168583 20.9426 -11.1378 -23.9172 48.6446 1.65742 -39.3841 0.59322 -75.3039 -7.22369 5.31828 -3.173 26.4783 -7.18299 -0.0 0.0 -0.0 -2.81947 -9.49629 3.78539 -8.02647 19.5343 -71.5202 0.295892 8.339 -0.0215707 59.1613 1.69983 7.03003 -1.43105 -11.5096 4.33659 0.0 0.0 0.0 10.9406 31.3729 -17.0398 1.51527 -0.0653566 -0.223328 22.3815 -29.3829 -3.74453 -13.3813 0.0 0.0 -0.0 0.0 -0.0 9.15355 -1.58089 -13.9797 -13.2338 -0.314879 -2.002 -20.829 -24.3626 -3.25298 -33.8668 0.0 0.0 0.0 0.0 0.0 
2842.61154329 716.791 -1630.8579043 -7.1863314087 67.3508045148 19.3470542961 2.13847 -0.642598 -4.48076 2.14956 -0.35647 -4.51249 2.17688 0.429567 -4.50613 2.14867 -0.286734 -4.51744 -17.7302 8.74763 12.2742 -17.4116 10.1149 14.6949 -0.0 0.0 -0.0 10.7849 0.678762 21.2433 -6.34136 -20.0051 50.3997 1.97004 -44.2964 0.801948 -78.6509 -7.65044 5.29588 -1.86188 24.721 -0.745684 -0.0 0.0 -0.0 -2.26879 -7.32804 3.18829 -9.95746 16.452 -70.1915 0.1977 5.59356 -0.00965798 62.4741 1.99908 7.33137 -1.7595 -6.84368 8.63855 0.0 0.0 0.0 10.6389 30.4973 -15.2122 1.65204 -0.0715465 -0.243401 22.6787 -26.679 -3.66532 -14.401 0.0 0.0 -0.0 0.0 -0.0 20.4168 -4.25163 -16.1125 -10.269 -0.284711 -1.54814 -4.07664 -28.9836 -0.642262 -37.9124 0.0 0.0 0.0 0.0 0.0 
2842.56513194 716.791 -1631.26391507 -7.1655429339 67.2817904445 19.3245229786 2.13847 -0.642598 -4.48076 2.14956 -0.35647 -4.51249 2.17688 0.429567 -4.50613 2.14867 -0.286734 -4.51744 -17.7302 8.74763 12.2742 -17.4116 10.1149 14.6949 -0.0 0.0 -0.0 10.7849 0.678762 21.2433 -6.34136 -20.0051 50.3997 1.97004 -44.2964 0.801948 -78.6509 -7.65044 5.29588 -1.86188 24.721 -0.745684 -0.0 0.0 -0.0 -2.26879 -7.32804 3.18829 -9.95746 16.452 -70.1915 0.1977 5.59356 -0.00965798 62.4741 1.99908 7.33137 -1.7595 -6.84368 8.63855 0.0 0.0 0.0 10.6389 30.4973 -15.2122 1.65204 -0.0715465 -0.243401 22.6787 -26.679 -3.66532 -14.401 0.0 0.0 -0.0 0.0 -0.0 20.4168 -4.25163 -16.1125 -10.269 -0.284711 -1.54814 -4.07664 -28.9836 -0.642262 -37.9124 0.0 0.0 0.0 0.0 0.0 
2831.93258988 716.147 -1625.77322707 -8.60857398363 68.2244519119 20.5347295463 2.32632 -0.713495 -4.50898 2.33753 -0.425435 -4.54515 2.36998 0.351723 -4.55143 2.34128 -0.37074 -4.54992 -17.2166 9.13292 12.1221 -16.9185 10.8183 14.6369 -0.0 0.0 -0.0 10.7731 2.71815 21.071 -5.29634 -20.6496 50.7744 2.14915 -46.7869 0.929816 -79.7307 -7.78766 5.28329 -1.32187 21.3278 0.794097 -0.0 0.0 -0.0 -2.19084 -6.80448 3.13522 -12.3623 15.0116 -69.9808 0.246287 6.95607 -0.0149688 62.2554 1.97879 7.31201 -1.65836 -4.80503 8.92356 0.0 0.0 0.0 10.2099 29.7211 -14.8685 0.862623 -0.0364812 -0.127346 24.1574 -27.7664 -3.91836 -14.8845 0.0 0.0 -0.0 0.0 -0.0 21.5979 -5.69041 -15.4424 -7.78001 -0.241278 -1.16871 8.28068 -18.0464 1.20228 -38.4008 0.0 0.0 0.0 0.0 0.0 
2802.18898909 700.908 -1631.45351477 -8.93706707296 68.1230972281 20.229097108 2.47394 -1.02977 -4.55288 2.48517 -0.738284 -4.60901 2.54306 0.039107 -4.66748 2.51335 -0.697727 -4.61531 -17.7434 10.8395 12.5897 -17.5047 13.9858 15.7705 -0.0 0.0 -0.0 9.62431 4.36671 18.6381 -1.35437 -19.5469 55.7828 2.74879 -53.697 1.39163 -79.7307 -7.78766 5.28329 0.013691 15.2557 6.32625 -0.0 0.0 -0.0 -3.74699 -6.57234 6.00913 -14.459 13.6936 -72.4946 0.338942 9.53137 -0.0282575 63.3959 2.08541 7.41212 -1.84474 -3.53405 10.7656 0.0 0.0 0.0 5.24469 27.6676 -12.0446 4.59243 -0.216173 -0.671254 29.2137 -24.8484 -4.43594 -16.2742 0.0 0.0 -0.0 0.0 -0.0 25.2525 -3.12415 -14.2669 -9.06796 -0.265811 -1.36482 19.7599 -8.8729 2.70211 -35.6512 0.0 0.0 0.0 0.0 0.0 
2794.46569191 697.543 -1632.59688926 -8.46105958153 68.8893647081 19.4861823808 2.35384 -1.08383 -4.566 2.36508 -0.79141 -4.62554 2.42792 -0.00125197 -4.69261 2.39797 -0.741539 -4.63378 -18.226 11.0273 11.904 -18.0755 14.8399 15.2939 -0.0 0.0 -0.0 9.13533 4.5539 17.6645 0.108094 -19.7599 58.0309 2.99061 -55.969 1.58936 -79.4347 -7.75007 5.287 0.382899 13.0601 7.79565 -0.0 0.0 -0.0 -4.06383 -6.60158 6.58448 -15.2353 12.984 -72.7758 0.36277 10.1878 -0.0323377 63.8197 2.12553 7.44878 -1.81473 -3.52591 10.5676 0.0 0.0 0.0 3.42345 27.7202 -11.019 6.37098 -0.314269 -0.926325 30.5737 -24.323 -4.57378 -16.8283 0.0 0.0 -0.0 0.0 -0.0 27.4586 -2.39182 -13.2609 -8.7307 -0.259813 -1.31341 23.1632 -4.50652 3.11756 -34.4636 0.0 0.0 0.0 0.0 0.0 
2784.38975955 696.471 -1634.43835373 -7.69514310637 68.2507719251 18.5702766522 2.3126 -0.990493 -4.7604 2.32494 -0.68593 -4.81361 2.38142 0.138765 -4.86014 2.34902 -0.629636 -4.82127 -18.1834 11.3623 11.3795 -18.1015 15.7599 14.9413 -0.0 0.0 -0.0 9.16752 3.83128 17.7701 0.931136 -19.7154 59.3305 3.19597 -57.7093 1.76129 -78.9594 -7.68967 5.29255 0.631435 11.2813 8.70456 -0.0 0.0 -0.0 -4.35527 -6.68201 7.1033 -15.739 12.696 -72.9713 0.385269 10.8052 -0.0364364 64.2548 2.16701 7.4861 -1.81844 -3.85542 10.4377 0.0 0.0 0.0 1.97558 28.3876 -10.2551 5.59069 -0.270254 -0.814788 32.8317 -23.4185 -4.78915 -16.902 0.0 0.0 -0.0 0.0 -0.0 28.7701 -1.93925 -12.8453 -6.67196 -0.216648 -1.00045 25.4839 -0.576885 3.40534 -33.4514 0.0 0.0 0.0 0.0 0.0 
2770.55125763 694.141 -1635.42323678 -6.01958292355 66.8674526365 16.2458739447 2.24345 -0.807522 -4.86288 2.25646 -0.49683 -4.90427 2.29782 0.348403 -4.91702 2.26436 -0.43156 -4.91043 -17.6863 11.3785 10.3742 -17.6731 16.2263 13.947 -0.0 0.0 -0.0 10.3515 3.68291 20.1388 -1.29806 -20.7816 56.992 3.2539 -58.1718 1.81039 -80.1703 -7.84344 5.27742 0.648302 9.98225 8.31614 -0.0 0.0 -0.0 -4.20484 -6.50414 6.86418 -16.1 12.6801 -72.2671 0.354987 9.9737 -0.0309753 63.72 2.11607 7.44018 -1.74686 -5.51576 9.1797 0.0 0.0 0.0 0.853987 29.2078 -9.13534 2.96105 -0.133213 -0.434769 32.1492 -23.3719 -4.71087 -18.3616 0.0 0.0 -0.0 0.0 -0.0 28.8306 -0.447549 -13.1254 -1.51807 -0.0595231 -0.225358 24.6233 2.915 3.33347 -32.7075 0.0 0.0 0.0 0.0 0.0 
2677.31802527 670.252 -1640.00680585 -3.44469665493 67.8661928058 11.8814587162 1.88813 -0.870516 -5.13708 1.90264 -0.542316 -5.1819 1.95185 0.382445 -5.19611 1.91446 -0.441847 -5.1914 -21.2261 10.2986 8.06028 -21.4343 15.971 12.0117 -0.0 0.0 -0.0 10.502 4.44506 20.3788 -3.38894 -18.2325 63.7589 4.65497 -66.5329 3.0548 -85.1827 -8.47475 5.18006 0.379699 8.11424 5.84045 -0.0 0.0 -0.0 -3.21943 -5.40749 5.26283 -17.7642 15.05 -69.6627 0.517325 14.3739 -0.0652341 66.9714 2.43232 7.712 -2.88371 -20.8333 8.65669 0.0 0.0 0.0 -2.24788 29.6276 -8.53447 -13.5875 0.316909 2.05623 38.7981 -23.086 -5.38613 -19.7434 0.0 0.0 -0.0 0.0 -0.0 33.9949 0.694092 -10.4396 -4.66564 -0.163784 -0.697107 9.35263 13.9584 1.43568 -25.5325 0.0 0.0 0.0 0.0 0.0 
2635.70874161 669.227 -1647.16536735 -9.40201763469 69.4893838386 16.6065262796 1.75887 -0.681212 -5.24912 1.77412 -0.346293 -5.28171 1.80646 0.607286 -5.25816 1.76798 -0.229564 -5.28805 -16.6317 12.4087 10.6679 -16.6272 17.818 14.4211 -0.0 0.0 -0.0 10.6011 2.17433 20.76 -7.85154 -17.4345 63.7875 4.98813 -67.9422 3.36204 -83.6053 -8.27715 5.21671 0.100949 9.99516 4.78923 -0.0 0.0 -0.0 -0.884453 -5.21667 0.998064 -17.6378 16.0061 -66.0233 0.518378 14.402 -0.0654959 68.3534 2.57132 7.82204 -3.99178 -27.5639 11.1042 0.0 0.0 0.0 -1.87124 32.6371 -8.01453 -12.3019 0.307928 1.85919 37.9794 -24.8296 -5.39774 -19.1523 0.0 0.0 -0.0 0.0 -0.0 34.4302 2.30821 -9.29344 -2.62544 -0.0991607 -0.390682 -6.88825 21.5648 -1.18272 -21.6068 0.0 0.0 0.0 0.0 0.0 
